<?xml version="1.0" encoding="utf-8"?>
<!-- Generator: Adobe Illustrator 19.2.1, SVG Export Plug-In . SVG Version: 6.00 Build 0)  -->
<!DOCTYPE svg PUBLIC "-//W3C//DTD SVG 1.1//EN" "http://www.w3.org/Graphics/SVG/1.1/DTD/svg11.dtd">
<svg version="1.1" xmlns="http://www.w3.org/2000/svg" xmlns:xlink="http://www.w3.org/1999/xlink" x="0px" y="0px"
	 viewBox="0 0 48 352" enable-background="new 0 0 48 352" xml:space="preserve">
<g id="youtube">
	<g id="XMLID_178_">
		<path id="XMLID_179_" fill="#CD201F" d="M15.99759,248c0,5.66406,0,5.66406-8,5.66406s-8,0-8-5.66406s0-5.66406,8-5.66406
			S15.99759,242.33594,15.99759,248z M10.99759,248l-5-3v6L10.99759,248z"/>
	</g>
	<g id="XMLID_154_">
		<path id="XMLID_155_" d="M31.99759,248c0,5.66406,0,5.66406-8,5.66406s-8,0-8-5.66406s0-5.66406,8-5.66406
			S31.99759,242.33594,31.99759,248z M26.99759,248l-5-3v6L26.99759,248z"/>
	</g>
	<g id="XMLID_150_">
		<path id="XMLID_151_" fill="#FFFFFF" d="M48,248c0,5.66406,0,5.66406-8,5.66406s-8,0-8-5.66406s0-5.66406,8-5.66406
			S48,242.33594,48,248z M43,248l-5-3v6L43,248z"/>
	</g>
	<g id="XMLID_187_">
		<path id="XMLID_188_" fill="#3F729B" d="M16,258.33624v11.32812c0,1.28906-1.04688,2.33594-2.33594,2.33594H2.33594
			C1.04688,272.00031,0,270.95343,0,269.66437v-11.32812c0-1.28906,1.04688-2.33594,2.33594-2.33594h11.32812
			C14.95312,256.00031,16,257.04718,16,258.33624z M14.33594,263.00031H12.5625c0.07031,0.32031,0.10156,0.65625,0.10156,1
			c0,2.57812-2.08594,4.66406-4.66406,4.66406s-4.66406-2.08594-4.66406-4.66406c0-0.34375,0.03125-0.67969,0.10156-1H1.66406v7
			c0,0.1875,0.14844,0.33594,0.33594,0.33594h12c0.1875,0,0.33594-0.14844,0.33594-0.33594V263.00031z M5,264.00031
			c0,1.65625,1.34375,3,3,3s3-1.34375,3-3s-1.34375-3-3-3S5,262.34406,5,264.00031z M14.33594,258.00031
			c0-0.1875-0.14844-0.33594-0.33594-0.33594h-2c-0.1875,0-0.33594,0.14844-0.33594,0.33594v2
			c0,0.1875,0.14844,0.33594,0.33594,0.33594h2c0.1875,0,0.33594-0.14844,0.33594-0.33594V258.00031z"/>
	</g>
	<g id="XMLID_186_">
		<path id="XMLID_193_" d="M32,258.33624v11.32812c0,1.28906-1.04688,2.33594-2.33594,2.33594H18.33594
			c-1.28906,0-2.33594-1.04688-2.33594-2.33594v-11.32812c0-1.28906,1.04688-2.33594,2.33594-2.33594h11.32812
			C30.95312,256.00031,32,257.04718,32,258.33624z M30.33594,263.00031H28.5625c0.07031,0.32031,0.10156,0.65625,0.10156,1
			c0,2.57812-2.08594,4.66406-4.66406,4.66406s-4.66406-2.08594-4.66406-4.66406c0-0.34375,0.03125-0.67969,0.10156-1h-1.77344v7
			c0,0.1875,0.14844,0.33594,0.33594,0.33594h12c0.1875,0,0.33594-0.14844,0.33594-0.33594V263.00031z M21,264.00031
			c0,1.65625,1.34375,3,3,3s3-1.34375,3-3s-1.34375-3-3-3S21,262.34406,21,264.00031z M30.33594,258.00031
			c0-0.1875-0.14844-0.33594-0.33594-0.33594h-2c-0.1875,0-0.33594,0.14844-0.33594,0.33594v2
			c0,0.1875,0.14844,0.33594,0.33594,0.33594h2c0.1875,0,0.33594-0.14844,0.33594-0.33594V258.00031z"/>
	</g>
	<g id="XMLID_215_">
		<path id="XMLID_216_" fill="#FFFFFF" d="M48,258.33624v11.32812c0,1.28906-1.04688,2.33594-2.33594,2.33594H34.33594
			c-1.28906,0-2.33594-1.04688-2.33594-2.33594v-11.32812c0-1.28906,1.04688-2.33594,2.33594-2.33594h11.32812
			C46.95312,256.00031,48,257.04718,48,258.33624z M46.33594,263.00031H44.5625c0.07031,0.32031,0.10156,0.65625,0.10156,1
			c0,2.57812-2.08594,4.66406-4.66406,4.66406s-4.66406-2.08594-4.66406-4.66406c0-0.34375,0.03125-0.67969,0.10156-1h-1.77344v7
			c0,0.1875,0.14844,0.33594,0.33594,0.33594h12c0.1875,0,0.33594-0.14844,0.33594-0.33594V263.00031z M37,264.00031
			c0,1.65625,1.34375,3,3,3s3-1.34375,3-3s-1.34375-3-3-3S37,262.34406,37,264.00031z M46.33594,258.00031
			c0-0.1875-0.14844-0.33594-0.33594-0.33594h-2c-0.1875,0-0.33594,0.14844-0.33594,0.33594v2
			c0,0.1875,0.14844,0.33594,0.33594,0.33594h2c0.1875,0,0.33594-0.14844,0.33594-0.33594V258.00031z"/>
	</g>
	<g id="XMLID_233_">
		<path id="XMLID_234_" fill="#CC2127" d="M14.1875,277.25827c0,3.60938-2,6.29688-4.94531,6.29688
			c-1,0-1.92969-0.51562-2.25781-1.125c0,0-0.52344,2.10938-0.64844,2.51562c-0.39062,1.44531-1.55469,2.89062-1.64844,3
			c-0.07812,0.09375-0.20312,0.05469-0.22656-0.03906c-0.01562-0.1875-0.3125-2.01562,0.03906-3.5
			c0.16406-0.74219,1.16406-5,1.16406-5s-0.27344-0.59375-0.27344-1.46094c0-1.375,0.77344-2.375,1.75781-2.375
			c0.83594,0,1.24219,0.61719,1.24219,1.375c0,0.83594-0.53906,2.09375-0.82031,3.25781
			c-0.21875,0.98438,0.5,1.78125,1.46875,1.78125c1.74219,0,2.90625-2.24219,2.90625-4.89062
			c0-2.02344-1.35156-3.52344-3.8125-3.52344c-2.79687,0-4.53906,2.07812-4.53906,4.39062c0,0.82031,0.24219,1.375,0.60938,1.82031
			c0.16406,0.20312,0.1875,0.27344,0.13281,0.5c-0.03906,0.17969-0.14844,0.58594-0.1875,0.73438
			c-0.05469,0.24219-0.24219,0.32031-0.46094,0.24219c-1.28125-0.53906-1.875-1.94531-1.875-3.51562
			c0-2.60938,2.1875-5.74219,6.55469-5.74219C11.89063,272.00046,14.1875,274.53952,14.1875,277.25827z"/>
	</g>
	<g id="XMLID_230_">
		<path id="XMLID_236_" d="M30.1875,277.25827c0,3.60938-2,6.29688-4.94531,6.29688c-1,0-1.92969-0.51562-2.25781-1.125
			c0,0-0.52344,2.10938-0.64844,2.51562c-0.39062,1.44531-1.55469,2.89062-1.64844,3
			c-0.07812,0.09375-0.20312,0.05469-0.22656-0.03906c-0.01562-0.1875-0.3125-2.01562,0.03906-3.5
			c0.16406-0.74219,1.16406-5,1.16406-5s-0.27344-0.59375-0.27344-1.46094c0-1.375,0.77344-2.375,1.75781-2.375
			c0.83594,0,1.24219,0.61719,1.24219,1.375c0,0.83594-0.53906,2.09375-0.82031,3.25781
			c-0.21875,0.98438,0.5,1.78125,1.46875,1.78125c1.74219,0,2.90625-2.24219,2.90625-4.89062
			c0-2.02344-1.35156-3.52344-3.8125-3.52344c-2.79688,0-4.53906,2.07812-4.53906,4.39062c0,0.82031,0.24219,1.375,0.60938,1.82031
			c0.16406,0.20312,0.1875,0.27344,0.13281,0.5c-0.03906,0.17969-0.14844,0.58594-0.1875,0.73438
			c-0.05469,0.24219-0.24219,0.32031-0.46094,0.24219c-1.28125-0.53906-1.875-1.94531-1.875-3.51562
			c0-2.60938,2.1875-5.74219,6.55469-5.74219C27.89063,272.00046,30.1875,274.53952,30.1875,277.25827z"/>
	</g>
	<g id="XMLID_238_">
		<path id="XMLID_239_" fill="#FFFFFF" d="M46.1875,277.25827c0,3.60938-2,6.29688-4.94531,6.29688
			c-1,0-1.92969-0.51562-2.25781-1.125c0,0-0.52344,2.10938-0.64844,2.51562c-0.39062,1.44531-1.55469,2.89062-1.64844,3
			c-0.07812,0.09375-0.20312,0.05469-0.22656-0.03906c-0.01562-0.1875-0.3125-2.01562,0.03906-3.5
			c0.16406-0.74219,1.16406-5,1.16406-5s-0.27344-0.59375-0.27344-1.46094c0-1.375,0.77344-2.375,1.75781-2.375
			c0.83594,0,1.24219,0.61719,1.24219,1.375c0,0.83594-0.53906,2.09375-0.82031,3.25781
			c-0.21875,0.98438,0.5,1.78125,1.46875,1.78125c1.74219,0,2.90625-2.24219,2.90625-4.89062
			c0-2.02344-1.35156-3.52344-3.8125-3.52344c-2.79688,0-4.53906,2.07812-4.53906,4.39062c0,0.82031,0.24219,1.375,0.60938,1.82031
			c0.16406,0.20312,0.1875,0.27344,0.13281,0.5c-0.03906,0.17969-0.14844,0.58594-0.1875,0.73438
			c-0.05469,0.24219-0.24219,0.32031-0.46094,0.24219c-1.28125-0.53906-1.875-1.94531-1.875-3.51562
			c0-2.60938,2.1875-5.74219,6.55469-5.74219C43.89062,272.00046,46.1875,274.53952,46.1875,277.25827z"/>
	</g>
	<g id="XMLID_242_">
		<path id="XMLID_243_" fill="#0077B5" d="M1.98438,291.83228H1.96094c-1.17969,0-1.96094-0.8125-1.96094-1.83594
			c0-1.03125,0.79688-1.82812,2.01562-1.82812c1.20312,0,1.96875,0.79688,1.98438,1.82812
			C4,291.01978,3.21875,291.83228,1.98438,291.83228z M3.66406,293.49634v10.33594H0.33594v-10.33594H3.66406z M9,303.83228H5.66406
			v-8c0,0-0.05469-1.98438-0.05469-2.33594h3.28125L9,294.92603c0.66406-1,1.66406-1.75781,3-1.75781c2.33594,0,4,1.66406,4,4.66406
			v6h-3.33594v-5.66406c0-1.67188-0.8125-2.33594-1.8125-2.33594S9,296.49634,9,297.83228V303.83228z"/>
	</g>
	<g id="XMLID_241_">
		<path id="XMLID_247_" d="M17.98438,291.83228h-0.02344c-1.17969,0-1.96094-0.8125-1.96094-1.83594
			c0-1.03125,0.79688-1.82812,2.01562-1.82812c1.20312,0,1.96875,0.79688,1.98438,1.82812
			C20,291.01978,19.21875,291.83228,17.98438,291.83228z M19.66406,293.49634v10.33594h-3.32812v-10.33594H19.66406z M25,303.83228
			h-3.33594v-8c0,0-0.05469-1.98438-0.05469-2.33594h3.28125L25,294.92603c0.66406-1,1.66406-1.75781,3-1.75781
			c2.33594,0,4,1.66406,4,4.66406v6h-3.33594v-5.66406c0-1.67188-0.8125-2.33594-1.8125-2.33594S25,296.49634,25,297.83228
			V303.83228z"/>
	</g>
	<g id="XMLID_251_">
		<path id="XMLID_252_" fill="#FFFFFF" d="M33.98438,291.83228h-0.02344c-1.17969,0-1.96094-0.8125-1.96094-1.83594
			c0-1.03125,0.79688-1.82812,2.01562-1.82812c1.20312,0,1.96875,0.79688,1.98438,1.82812
			C36,291.01978,35.21875,291.83228,33.98438,291.83228z M35.66406,293.49634v10.33594h-3.32812v-10.33594H35.66406z M41,303.83228
			h-3.33594v-8c0,0-0.05469-1.98438-0.05469-2.33594h3.28125L41,294.92603c0.66406-1,1.66406-1.75781,3-1.75781
			c2.33594,0,4,1.66406,4,4.66406v6h-3.33594v-5.66406c0-1.67188-0.8125-2.33594-1.8125-2.33594S41,296.49634,41,297.83228
			V303.83228z"/>
	</g>
</g>
<g id="googleplus">
	<path fill="#DC4E41" d="M16,231.33333h-1.66667v-1.66666H13v1.66666h-1.66667v1.33334H13v1.66666h1.33333v-1.66666H16 M5.33333,231
		v2.08H8.24c-0.22333,1.25333-1.31,2.16667-2.90667,2.16667c-1.76,0-3.19-1.49001-3.19-3.25c0-1.76001,1.43-3.24667,3.19-3.24667
		c0.79333,0,1.50333,0.27333,2.06333,0.80667V229.56L8.9,228.05667c-0.92333-0.86-2.12667-1.39-3.56667-1.39
		C2.38666,226.66667,0,229.05333,0,232s2.38667,5.33333,5.33333,5.33333c3.08,0,5.12-2.16666,5.12-5.21333
		c0-0.39-0.03667-0.76334-0.10333-1.12H5.33333z"/>
	<path d="M32,231.33333h-1.66667v-1.66666H29v1.66666h-1.66667v1.33334H29v1.66666h1.33333v-1.66666H32 M21.33333,231v2.08H24.24
		c-0.22333,1.25333-1.31,2.16667-2.90667,2.16667c-1.76,0-3.19-1.49001-3.19-3.25c0-1.76001,1.43-3.24667,3.19-3.24667
		c0.79333,0,1.50333,0.27333,2.06333,0.80667V229.56L24.9,228.05667c-0.92333-0.86-2.12667-1.39-3.56667-1.39
		C18.38666,226.66667,16,229.05333,16,232s2.38667,5.33333,5.33333,5.33333c3.08,0,5.12-2.16666,5.12-5.21333
		c0-0.39-0.03667-0.76334-0.10333-1.12H21.33333z"/>
	<path fill="#FFFFFF" d="M48,231.33333h-1.66666v-1.66666H45v1.66666h-1.66666v1.33334H45v1.66666h1.33334v-1.66666H48
		 M37.33333,231v2.08H40.24c-0.22334,1.25333-1.31,2.16667-2.90667,2.16667c-1.76,0-3.19-1.49001-3.19-3.25
		c0-1.76001,1.43-3.24667,3.19-3.24667c0.79333,0,1.50333,0.27333,2.06333,0.80667V229.56L40.9,228.05667
		c-0.92333-0.86-2.12667-1.39-3.56667-1.39C34.38667,226.66667,32,229.05333,32,232s2.38667,5.33333,5.33333,5.33333
		c3.08,0,5.12-2.16666,5.12-5.21333c0-0.39-0.03667-0.76334-0.10333-1.12H37.33333z"/>
</g>
<g id="twitter">
	<g id="XMLID_223_">
		<path id="XMLID_224_" fill="#55ACEE" d="M14.36719,212.73438v0.42969c0,4.33594-3.29688,9.33594-9.32812,9.33594
			c-1.85156,0-3.59375-0.40625-5.03906-1.33594c0.25781,0.03906,0.51562,0.05469,0.78125,0.05469
			c1.53125,0,2.96094-0.66406,4.07031-1.55469c-1.42188-0.01562-2.64844-0.98438-3.05469-2.28125
			c0.20312,0.03906,0.40625,0.0625,0.60938,0.0625c0.29688,0,0.59375-0.03906,0.875-0.11719
			c-1.5-0.29688-2.63281-1.625-2.63281-3.21875v-0.03906c0.44531,0.24219,0.94531,0.39062,1.48438,0.40625
			c-0.89062-0.59375-1.46875-1.59375-1.46875-2.71875c0-0.60938,0.17188-1.10938,0.44531-1.59375
			c1.63281,1.98438,4.03906,3.21875,6.75781,3.36719c-0.05469-0.23438-0.07031-0.5-0.07031-0.75781
			c0-1.8125,1.46094-3.27344,3.27344-3.27344c0.94531,0,1.79688,0.40625,2.41406,1.03125
			c0.73438-0.14844,1.44531-0.42188,2.07031-0.79688c-0.24219,0.76562-0.75781,1.41406-1.44531,1.82031
			c0.67188-0.07812,1.29688-0.25781,1.89062-0.52344C15.55469,211.70312,15,212.27344,14.36719,212.73438z"/>
	</g>
	<g id="XMLID_220_">
		<path id="XMLID_221_" d="M30.36719,212.73438v0.42969c0,4.33594-3.29688,9.33594-9.32812,9.33594
			c-1.85156,0-3.59375-0.40625-5.03906-1.33594c0.25781,0.03906,0.51562,0.05469,0.78125,0.05469
			c1.53125,0,2.96094-0.66406,4.07031-1.55469c-1.42188-0.01562-2.64844-0.98438-3.05469-2.28125
			c0.20312,0.03906,0.40625,0.0625,0.60938,0.0625c0.29688,0,0.59375-0.03906,0.875-0.11719
			c-1.5-0.29688-2.63281-1.625-2.63281-3.21875v-0.03906c0.44531,0.24219,0.94531,0.39062,1.48438,0.40625
			c-0.89062-0.59375-1.46875-1.59375-1.46875-2.71875c0-0.60938,0.17188-1.10938,0.44531-1.59375
			c1.63281,1.98438,4.03906,3.21875,6.75781,3.36719c-0.05469-0.23438-0.07031-0.5-0.07031-0.75781
			c0-1.8125,1.46094-3.27344,3.27344-3.27344c0.94531,0,1.79688,0.40625,2.41406,1.03125
			c0.73438-0.14844,1.44531-0.42188,2.07031-0.79688c-0.24219,0.76562-0.75781,1.41406-1.44531,1.82031
			c0.67188-0.07812,1.29688-0.25781,1.89062-0.52344C31.55469,211.70312,31,212.27344,30.36719,212.73438z"/>
	</g>
	<g id="XMLID_217_">
		<path id="XMLID_218_" fill="#FFFFFF" d="M46.36478,212.73438v0.42969c0,4.33594-3.29688,9.33594-9.32812,9.33594
			c-1.85156,0-3.59375-0.40625-5.03906-1.33594c0.25781,0.03906,0.51562,0.05469,0.78125,0.05469
			c1.53125,0,2.96094-0.66406,4.07031-1.55469c-1.42188-0.01562-2.64844-0.98438-3.05469-2.28125
			c0.20312,0.03906,0.40625,0.0625,0.60938,0.0625c0.29688,0,0.59375-0.03906,0.875-0.11719
			c-1.5-0.29688-2.63281-1.625-2.63281-3.21875v-0.03906c0.44531,0.24219,0.94531,0.39062,1.48438,0.40625
			c-0.89062-0.59375-1.46875-1.59375-1.46875-2.71875c0-0.60938,0.17188-1.10938,0.44531-1.59375
			c1.63281,1.98438,4.03906,3.21875,6.75781,3.36719c-0.05469-0.23438-0.07031-0.5-0.07031-0.75781
			c0-1.8125,1.46094-3.27344,3.27344-3.27344c0.94531,0,1.79688,0.40625,2.41406,1.03125
			c0.73438-0.14844,1.44531-0.42188,2.07031-0.79688c-0.24219,0.76562-0.75781,1.41406-1.44531,1.82031
			c0.67188-0.07812,1.29688-0.25781,1.89062-0.52344C47.55228,211.70312,46.99759,212.27344,46.36478,212.73438z"/>
	</g>
</g>
<g id="facebook">
	<g id="XMLID_140_">
		<path id="XMLID_141_" fill="#3B5998" d="M16,177v14c0,0.54688-0.45312,1-1,1h-4v-6.21875h2l0.33594-2.30469H11v-1.8125
			c0-0.65625,0.33594-1.03125,1-1.03125h1.5v-2.07812c0,0-0.67188-0.10938-1.64062-0.10938
			c-2.19531,0-3.30469,1.21875-3.30469,3.03906v1.99219h-2v2.30469h2V192H1c-0.54688,0-1-0.45312-1-1v-14c0-0.54688,0.45312-1,1-1
			h14C15.54688,176,16,176.45312,16,177z"/>
	</g>
	<g id="XMLID_137_">
		<path id="XMLID_138_" d="M32,177v14c0,0.54688-0.45312,1-1,1h-4v-6.21875h2l0.33594-2.30469H27v-1.8125
			c0-0.65625,0.33594-1.03125,1-1.03125h1.5v-2.07812c0,0-0.67188-0.10938-1.64062-0.10938
			c-2.19531,0-3.30469,1.21875-3.30469,3.03906v1.99219h-2v2.30469h2V192H17c-0.54688,0-1-0.45312-1-1v-14c0-0.54688,0.45313-1,1-1
			h14C31.54688,176,32,176.45312,32,177z"/>
	</g>
	<g id="XMLID_131_">
		<path id="XMLID_132_" fill="#FFFFFF" d="M47.99759,177v14c0,0.54688-0.45312,1-1,1h-4v-6.21875h2l0.33594-2.30469h-2.33594
			v-1.8125c0-0.65625,0.33594-1.03125,1-1.03125h1.5v-2.07812c0,0-0.67188-0.10938-1.64062-0.10938
			c-2.19531,0-3.30469,1.21875-3.30469,3.03906v1.99219h-2v2.30469h2V192h-7.55469c-0.54688,0-1-0.45312-1-1v-14
			c0-0.54688,0.45312-1,1-1h14C47.54446,176,47.99759,176.45312,47.99759,177z"/>
	</g>
	<path fill="#3B5998" d="M13,192H3c-0.55,0-1,0.45-1,1v14.49904c0,0.42392,0.49443,0.6555,0.82009,0.38411l4.85982-4.04984
		c0.18542-0.15453,0.45476-0.15453,0.64018,0l4.85982,4.04984C13.50557,208.15454,14,207.92296,14,207.49904V193
		C14,192.45,13.55,192,13,192z"/>
	<path d="M29,192H19c-0.55,0-1,0.45-1,1v14.49904c0,0.42392,0.49443,0.6555,0.82009,0.38411l4.85982-4.04984
		c0.18542-0.15453,0.45476-0.15453,0.64018,0l4.85982,4.04984C29.50557,208.15454,30,207.92296,30,207.49904V193
		C30,192.45,29.55,192,29,192z"/>
	<path fill="#FFFFFF" d="M45,192H35c-0.55,0-1,0.45-1,1v14.49904c0,0.42392,0.49443,0.6555,0.82009,0.38411l4.85982-4.04984
		c0.18542-0.15453,0.45476-0.15453,0.64018,0l4.85982,4.04984C45.50557,208.15454,46,207.92296,46,207.49904V193
		C46,192.45,45.55,192,45,192z"/>
	<rect x="-0.15429" fill="none" width="48.15429" height="351.92224"/>
</g>
<g id="rss">
	<g id="XMLID_147_">
		<circle id="XMLID_183_" fill="#FF6600" cx="1.99759" cy="174" r="2"/>
		<path id="XMLID_148_" fill="#FF6600" d="M-0.00241,163c7.2,0,13,5.8,13,13h3c0-8.8-7.2-16-16-16V163z M-0.00241,166v3
			c3.9,0,7,3.10001,7,7h3C9.99759,170.5,5.49759,166-0.00241,166z"/>
	</g>
	<circle id="XMLID_98_" cx="17.99759" cy="174" r="2"/>
	<path id="XMLID_88_" d="M15.99759,163c7.2,0,13,5.8,13,13h3c0-8.8-7.2-16-16-16V163z M15.99759,166v3c3.9,0,7,3.10001,7,7h3
		C25.99759,170.5,21.49759,166,15.99759,166z"/>
	<g id="XMLID_10_">
		<circle id="XMLID_57_" fill="#FFFFFF" cx="33.99759" cy="174" r="2"/>
		<path id="XMLID_11_" fill="#FFFFFF" d="M31.99759,163c7.2,0,13,5.8,13,13h3c0-8.8-7.2-16-16-16V163z M31.99759,166v3
			c3.9,0,7,3.10001,7,7h3C41.99759,170.5,37.49759,166,31.99759,166z"/>
	</g>
	<g>
		<path fill="#AAAAAA" d="M15.76531,130.94638c0.15485,0.97655,0.23228,2.01167,0.23228,3.10681
			c0,1.08395-0.07743,2.10794-0.23228,3.07193c-0.09556,0.63057-0.44363,1.20813-1.0449,1.73267
			c-0.60127,0.52315-1.23463,0.8203-1.90147,0.89284c-1.30997,0.13115-2.6011,0.20229-3.87479,0.21346l-3.41093,3.30351
			c-0.10672,0.10742-0.23786,0.16043-0.39271,0.16043c-0.05999,0-0.13672-0.01115-0.23228-0.03488
			c-0.226-0.09486-0.339-0.27342-0.339-0.53571v-2.92824l-1.39297-0.10742c-0.65498-0.07115-1.28555-0.37805-1.8931-0.91934
			c-0.60685-0.54268-0.96399-1.13419-1.07141-1.77731c-0.1423-1.00026-0.21414-2.01727-0.21414-3.0538
			c0-1.07141,0.07185-2.11212,0.21414-3.12494c0.10742-0.64313,0.46456-1.23463,1.07141-1.77592
			c0.60755-0.54268,1.23812-0.84819,1.8931-0.92075C4.84265,128.08371,6.44976,128,7.99759,128
			c1.54713,0,3.15424,0.08371,4.82134,0.24971c0.65429,0.07256,1.28555,0.37807,1.8931,0.92075
			C15.31889,129.71175,15.66975,130.30325,15.76531,130.94638z"/>
	</g>
	<g>
		<path d="M31.76531,130.94638c0.15485,0.97655,0.23228,2.01167,0.23228,3.10681c0,1.08395-0.07743,2.10794-0.23228,3.07193
			c-0.09556,0.63057-0.44363,1.20813-1.0449,1.73267c-0.60127,0.52315-1.23463,0.8203-1.90147,0.89284
			c-1.30997,0.13115-2.6011,0.20229-3.87479,0.21346l-3.41093,3.30351c-0.10672,0.10742-0.23786,0.16043-0.39271,0.16043
			c-0.05999,0-0.13671-0.01115-0.23228-0.03488c-0.226-0.09486-0.339-0.27342-0.339-0.53571v-2.92824l-1.39297-0.10742
			c-0.65498-0.07115-1.28555-0.37805-1.8931-0.91934c-0.60685-0.54268-0.96399-1.13419-1.07141-1.77731
			c-0.1423-1.00026-0.21414-2.01727-0.21414-3.0538c0-1.07141,0.07185-2.11212,0.21414-3.12494
			c0.10742-0.64313,0.46456-1.23463,1.07141-1.77592c0.60755-0.54268,1.23812-0.84819,1.8931-0.92075
			c1.6664-0.166,3.27352-0.24971,4.82134-0.24971c1.54713,0,3.15424,0.08371,4.82134,0.24971
			c0.65429,0.07256,1.28555,0.37807,1.8931,0.92075C31.31889,129.71175,31.66975,130.30325,31.76531,130.94638z"/>
	</g>
	<g>
		<path fill="#FFFFFF" d="M47.76531,130.94638c0.15485,0.97655,0.23228,2.01167,0.23228,3.10681
			c0,1.08395-0.07743,2.10794-0.23228,3.07193c-0.09556,0.63057-0.44363,1.20813-1.04491,1.73267
			c-0.60127,0.52315-1.23463,0.8203-1.90147,0.89284c-1.30997,0.13115-2.6011,0.20229-3.87479,0.21346l-3.41093,3.30351
			c-0.10672,0.10742-0.23786,0.16043-0.39271,0.16043c-0.05999,0-0.13671-0.01115-0.23228-0.03488
			c-0.226-0.09486-0.339-0.27342-0.339-0.53571v-2.92824l-1.39297-0.10742c-0.65498-0.07115-1.28555-0.37805-1.8931-0.91934
			c-0.60685-0.54268-0.96399-1.13419-1.07141-1.77731c-0.1423-1.00026-0.21414-2.01727-0.21414-3.0538
			c0-1.07141,0.07185-2.11212,0.21414-3.12494c0.10742-0.64313,0.46456-1.23463,1.07141-1.77592
			c0.60755-0.54268,1.23812-0.84819,1.8931-0.92075C36.84265,128.08371,38.44976,128,39.99759,128
			c1.54713,0,3.15424,0.08371,4.82135,0.24971c0.65429,0.07256,1.28555,0.37807,1.8931,0.92075
			C47.31889,129.71175,47.66975,130.30325,47.76531,130.94638z"/>
	</g>
	<path fill="#6CC79F" d="M15.9325,312.49948c-0.22729-0.6778-0.96219-1.04327-1.64146-0.81619l-1.62125,0.5416l-1.07784-3.21191
		l1.62125-0.54181c0.67947-0.22708,1.04562-0.9606,0.81793-1.63861c-0.22749-0.67783-0.96239-1.0433-1.64166-0.81644
		l-1.62125,0.54202l-0.56203-1.67438c-0.22749-0.6778-0.96239-1.04346-1.64166-0.81641
		c-0.67907,0.22708-1.04542,0.9606-0.81793,1.63861l0.56203,1.67438l-3.34295,1.11737l-0.56183-1.67435
		c-0.22729-0.67783-0.96219-1.0433-1.64146-0.81644c-0.67927,0.22729-1.04542,0.96082-0.81793,1.63861l0.56183,1.67438
		l-1.62085,0.54181c-0.67927,0.22708-1.04542,0.9606-0.81793,1.63861c0.17787,0.53024,0.66667,0.86954,1.19608,0.88312
		c0.14726,0.004,0.29772-0.01758,0.44538-0.06671l1.62105-0.54181l1.07783,3.21194l-1.62125,0.54181
		c-0.67907,0.22726-1.04542,0.9606-0.81793,1.63861c0.17807,0.53024,0.66667,0.86954,1.19628,0.88312
		c0.14726,0.00418,0.29752-0.01758,0.44538-0.06671l1.62125-0.54221l0.56183,1.67456
		c0.17807,0.53043,0.66667,0.86954,1.19628,0.88351c0.14726,0.00381,0.29752-0.01797,0.44518-0.06711
		c0.67927-0.22705,1.04542-0.96078,0.81793-1.6384l-0.56183-1.67477l3.34295-1.11737l0.56183,1.67438
		c0.17767,0.53043,0.66647,0.86972,1.19628,0.88309c0.14686,0.00421,0.29732-0.01715,0.44518-0.06668
		c0.67927-0.22708,1.04542-0.9606,0.81793-1.63861l-0.56203-1.67416l1.62125-0.54184
		C15.79384,313.91083,16.15999,313.17709,15.9325,312.49948z M6.86724,314.16446l-1.07783-3.21191l3.34295-1.11758l1.07784,3.21173
		L6.86724,314.16446z"/>
	<path d="M31.9325,312.49948c-0.22729-0.6778-0.96219-1.04327-1.64146-0.81619l-1.62125,0.5416l-1.07784-3.21191l1.62125-0.54181
		c0.67947-0.22708,1.04562-0.9606,0.81793-1.63861c-0.22749-0.67783-0.96239-1.0433-1.64166-0.81644l-1.62125,0.54202
		l-0.56203-1.67438c-0.22749-0.6778-0.96239-1.04346-1.64166-0.81641c-0.67907,0.22708-1.04542,0.9606-0.81793,1.63861
		l0.56203,1.67438l-3.34295,1.11737l-0.56183-1.67435c-0.22729-0.67783-0.96219-1.0433-1.64146-0.81644
		c-0.67927,0.22729-1.04542,0.96082-0.81793,1.63861l0.56182,1.67438l-1.62085,0.54181
		c-0.67927,0.22708-1.04542,0.9606-0.81793,1.63861c0.17787,0.53024,0.66667,0.86954,1.19608,0.88312
		c0.14726,0.004,0.29772-0.01758,0.44538-0.06671l1.62105-0.54181l1.07784,3.21194l-1.62125,0.54181
		c-0.67907,0.22726-1.04542,0.9606-0.81793,1.63861c0.17807,0.53024,0.66667,0.86954,1.19628,0.88312
		c0.14726,0.00418,0.29752-0.01758,0.44538-0.06671l1.62125-0.54221l0.56182,1.67456
		c0.17807,0.53043,0.66667,0.86954,1.19628,0.88351c0.14726,0.00381,0.29752-0.01797,0.44518-0.06711
		c0.67927-0.22705,1.04542-0.96078,0.81793-1.6384l-0.56182-1.67477l3.34295-1.11737l0.56183,1.67438
		c0.17767,0.53043,0.66647,0.86972,1.19628,0.88309c0.14686,0.00421,0.29732-0.01715,0.44518-0.06668
		c0.67927-0.22708,1.04542-0.9606,0.81793-1.63861l-0.56203-1.67416l1.62125-0.54184
		C31.79384,313.91083,32.15999,313.17709,31.9325,312.49948z M22.86724,314.16446l-1.07784-3.21191l3.34295-1.11758l1.07784,3.21173
		L22.86724,314.16446z"/>
	<path fill="#FFFFFF" d="M47.9325,312.49948c-0.22729-0.6778-0.96218-1.04327-1.64146-0.81619l-1.62125,0.5416l-1.07783-3.21191
		l1.62125-0.54181c0.67947-0.22708,1.04562-0.9606,0.81793-1.63861c-0.22749-0.67783-0.96239-1.0433-1.64166-0.81644
		l-1.62125,0.54202l-0.56203-1.67438c-0.22749-0.6778-0.96239-1.04346-1.64166-0.81641
		c-0.67907,0.22708-1.04542,0.9606-0.81793,1.63861l0.56203,1.67438l-3.34295,1.11737l-0.56182-1.67435
		c-0.22729-0.67783-0.96219-1.0433-1.64146-0.81644c-0.67927,0.22729-1.04542,0.96082-0.81793,1.63861l0.56182,1.67438
		l-1.62085,0.54181c-0.67927,0.22708-1.04542,0.9606-0.81793,1.63861c0.17787,0.53024,0.66667,0.86954,1.19608,0.88312
		c0.14726,0.004,0.29772-0.01758,0.44538-0.06671l1.62106-0.54181l1.07783,3.21194l-1.62125,0.54181
		c-0.67908,0.22726-1.04542,0.9606-0.81793,1.63861c0.17807,0.53024,0.66667,0.86954,1.19628,0.88312
		c0.14726,0.00418,0.29752-0.01758,0.44538-0.06671l1.62125-0.54221l0.56182,1.67456
		c0.17807,0.53043,0.66667,0.86954,1.19628,0.88351c0.14726,0.00381,0.29752-0.01797,0.44518-0.06711
		c0.67928-0.22705,1.04542-0.96078,0.81793-1.6384l-0.56183-1.67477l3.34295-1.11737l0.56182,1.67438
		c0.17767,0.53043,0.66647,0.86972,1.19628,0.88309c0.14686,0.00421,0.29732-0.01715,0.44518-0.06668
		c0.67928-0.22708,1.04542-0.9606,0.81793-1.63861l-0.56203-1.67416l1.62125-0.54184
		C47.79384,313.91083,48.15999,313.17709,47.9325,312.49948z M38.86724,314.16446l-1.07784-3.21191l3.34295-1.11758l1.07783,3.21173
		L38.86724,314.16446z"/>
</g>
<g id="location">
	<g id="XMLID_114_">
		<path id="XMLID_115_" d="M19.85648,113.80843c1.15039-1.2002,2.5293-1.7998,4.14062-1.7998s2.99219,0.59961,4.14258,1.7998
			s1.72461,2.64453,1.72461,4.33398c0,0.85547-0.17188,1.76367-0.51758,2.72461c-0.34375,0.96094-0.75977,1.81934-1.25,2.5752
			c-0.48828,0.75586-0.97656,1.45215-1.46484,2.0918c-0.49023,0.63867-0.90625,1.12988-1.25,1.47461l-0.51758,0.5166
			c-0.36719,0.32227-0.66992,0.48048-0.9082,0.47461c-0.23828-0.00488-0.53125-0.16309-0.875-0.47461
			c-0.13281-0.13281-0.31055-0.31641-0.5332-0.5498s-0.61914-0.70605-1.19141-1.41699s-1.07617-1.42188-1.50879-2.13281
			c-0.43359-0.71094-0.82812-1.55566-1.18359-2.5332c-0.35547-0.97852-0.5332-1.89453-0.5332-2.75
			C18.13089,116.45296,18.70609,115.00863,19.85648,113.80843z M22.04007,119.83382
			c0.53711,0.53906,1.19141,0.80859,1.95703,0.80859c0.76758,0,1.42188-0.26953,1.9668-0.80859s0.81641-1.19141,0.81641-1.95898
			c0-0.7666-0.27148-1.42188-0.81641-1.96582c-0.54492-0.54492-1.19922-0.81738-1.9668-0.81738
			c-0.76562,0-1.41992,0.27246-1.95703,0.81738c-0.53906,0.54395-0.80859,1.19922-0.80859,1.96582
			C21.23148,118.64242,21.50101,119.29476,22.04007,119.83382z"/>
	</g>
	<g id="XMLID_113_">
		<path id="XMLID_118_" fill="#AAAAAA" d="M3.85648,113.80843c1.15039-1.2002,2.5293-1.7998,4.14062-1.7998
			s2.99219,0.59961,4.14258,1.7998s1.72461,2.64453,1.72461,4.33398c0,0.85547-0.17188,1.76367-0.51758,2.72461
			c-0.34375,0.96094-0.75977,1.81934-1.25,2.5752c-0.48828,0.75586-0.97656,1.45215-1.46484,2.0918
			c-0.49023,0.63867-0.90625,1.12988-1.25,1.47461l-0.51758,0.5166c-0.36719,0.32227-0.66992,0.48048-0.9082,0.47461
			c-0.23828-0.00488-0.53125-0.16309-0.875-0.47461c-0.13281-0.13281-0.31055-0.31641-0.5332-0.5498
			s-0.61914-0.70605-1.19141-1.41699s-1.07617-1.42188-1.50879-2.13281c-0.43359-0.71094-0.82812-1.55566-1.18359-2.5332
			c-0.35547-0.97852-0.5332-1.89453-0.5332-2.75C2.13089,116.45296,2.70609,115.00863,3.85648,113.80843z M6.04007,119.83382
			c0.53711,0.53906,1.19141,0.80859,1.95703,0.80859c0.76758,0,1.42188-0.26953,1.9668-0.80859s0.81641-1.19141,0.81641-1.95898
			c0-0.7666-0.27148-1.42188-0.81641-1.96582c-0.54492-0.54492-1.19922-0.81738-1.9668-0.81738
			c-0.76562,0-1.41992,0.27246-1.95703,0.81738c-0.53906,0.54395-0.80859,1.19922-0.80859,1.96582
			C5.23148,118.64242,5.50101,119.29476,6.04007,119.83382z"/>
	</g>
	<g id="XMLID_121_">
		<path id="XMLID_122_" fill="#FFFFFF" d="M35.85648,113.80843c1.15039-1.2002,2.5293-1.7998,4.14062-1.7998
			s2.99219,0.59961,4.14258,1.7998s1.72461,2.64453,1.72461,4.33398c0,0.85547-0.17188,1.76367-0.51758,2.72461
			c-0.34375,0.96094-0.75977,1.81934-1.25,2.5752c-0.48828,0.75586-0.97656,1.45215-1.46484,2.0918
			c-0.49023,0.63867-0.90625,1.12988-1.25,1.47461l-0.51758,0.5166c-0.36719,0.32227-0.66992,0.48048-0.9082,0.47461
			c-0.23828-0.00488-0.53125-0.16309-0.875-0.47461c-0.13281-0.13281-0.31055-0.31641-0.5332-0.5498
			s-0.61914-0.70605-1.19141-1.41699s-1.07617-1.42188-1.50879-2.13281c-0.43359-0.71094-0.82812-1.55566-1.18359-2.5332
			c-0.35547-0.97852-0.5332-1.89453-0.5332-2.75C34.13089,116.45296,34.70609,115.00863,35.85648,113.80843z M38.04007,119.83382
			c0.53711,0.53906,1.19141,0.80859,1.95703,0.80859c0.76758,0,1.42188-0.26953,1.9668-0.80859s0.81641-1.19141,0.81641-1.95898
			c0-0.7666-0.27148-1.42188-0.81641-1.96582c-0.54492-0.54492-1.19922-0.81738-1.9668-0.81738
			c-0.76562,0-1.41992,0.27246-1.95703,0.81738c-0.53906,0.54395-0.80859,1.19922-0.80859,1.96582
			C37.23148,118.64242,37.50101,119.29476,38.04007,119.83382z"/>
	</g>
</g>
<g id="notification">
	<g id="XMLID_86_">
		<path id="XMLID_87_" fill="#AAAAAA" d="M15.07086,107.43359c0.31152,0.25586,0.43945,0.58301,0.38379,0.9834
			c-0.05566,0.39941-0.26172,0.67773-0.61719,0.83301l-0.08301,0.0332c-0.05566,0.02246-0.125,0.04785-0.20801,0.0752
			c-0.08398,0.02734-0.18945,0.06445-0.31738,0.1084s-0.26953,0.08887-0.4248,0.13281
			c-0.15527,0.04492-0.32812,0.0918-0.5166,0.1416c-0.18848,0.05078-0.39453,0.10059-0.61621,0.15039
			c-0.22266,0.0498-0.45605,0.09961-0.7002,0.15039c-0.24512,0.0498-0.51172,0.09375-0.7998,0.13281
			c-0.28906,0.03906-0.58398,0.0752-0.88379,0.1084c-0.14453,0.5-0.42773,0.91113-0.84961,1.2334
			C9.0152,111.83887,8.53766,112,8.00445,112s-1.01074-0.16113-1.43359-0.4834c-0.42188-0.32227-0.70508-0.7334-0.84961-1.2334
			c-1.74512-0.17773-3.25586-0.52246-4.53369-1.0332c-0.37744-0.16699-0.59424-0.4502-0.6499-0.84961
			c-0.0332-0.40039,0.1001-0.72266,0.3999-0.9668c0.05566-0.0332,0.15039-0.11426,0.28369-0.24219
			c0.1333-0.12695,0.32178-0.3584,0.56641-0.69141c0.24414-0.33301,0.47266-0.7002,0.68359-1.09961
			c0.21094-0.40039,0.39453-0.91699,0.5498-1.55078c0.15527-0.63281,0.2334-1.29395,0.2334-1.9834
			c0-0.93262,0.09668-1.75488,0.29199-2.46582c0.19434-0.71094,0.44434-1.27832,0.75-1.7002
			c0.30469-0.42188,0.67188-0.76367,1.09961-1.02539c0.42773-0.26074,0.84961-0.43848,1.2666-0.5332
			C7.07965,96.04785,7.52692,96,8.00445,96s0.9248,0.04785,1.3418,0.1416c0.41699,0.09473,0.83887,0.27246,1.2666,0.5332
			c0.42773,0.26172,0.79395,0.60352,1.09961,1.02539s0.55566,0.98926,0.75,1.7002s0.29199,1.5332,0.29199,2.46582
			c0,0.68945,0.07715,1.35059,0.2334,1.9834c0.15527,0.63379,0.33887,1.15332,0.5498,1.55859
			c0.21094,0.40625,0.43848,0.77246,0.68359,1.10059c0.24414,0.32715,0.43359,0.55566,0.56641,0.68262
			C14.92145,107.31934,15.0152,107.40039,15.07086,107.43359z"/>
	</g>
	<g id="XMLID_85_">
		<path id="XMLID_107_" d="M31.07086,107.43359c0.31152,0.25586,0.43945,0.58301,0.38379,0.9834
			c-0.05566,0.39941-0.26172,0.67773-0.61719,0.83301l-0.08301,0.0332c-0.05566,0.02246-0.125,0.04785-0.20801,0.0752
			c-0.08398,0.02734-0.18945,0.06445-0.31738,0.1084s-0.26953,0.08887-0.4248,0.13281
			c-0.15527,0.04492-0.32812,0.0918-0.5166,0.1416c-0.18848,0.05078-0.39453,0.10059-0.61621,0.15039
			c-0.22266,0.0498-0.45605,0.09961-0.7002,0.15039c-0.24512,0.0498-0.51172,0.09375-0.7998,0.13281
			c-0.28906,0.03906-0.58398,0.0752-0.88379,0.1084c-0.14453,0.5-0.42773,0.91113-0.84961,1.2334
			C25.0152,111.83887,24.53766,112,24.00446,112s-1.01074-0.16113-1.43359-0.4834c-0.42188-0.32227-0.70508-0.7334-0.84961-1.2334
			c-1.74512-0.17773-3.25586-0.52246-4.53369-1.0332c-0.37744-0.16699-0.59424-0.4502-0.6499-0.84961
			c-0.0332-0.40039,0.1001-0.72266,0.3999-0.9668c0.05566-0.0332,0.15039-0.11426,0.28369-0.24219
			c0.1333-0.12695,0.32178-0.3584,0.56641-0.69141c0.24414-0.33301,0.47266-0.7002,0.68359-1.09961
			c0.21094-0.40039,0.39453-0.91699,0.5498-1.55078c0.15527-0.63281,0.2334-1.29395,0.2334-1.9834
			c0-0.93262,0.09668-1.75488,0.29199-2.46582c0.19434-0.71094,0.44434-1.27832,0.75-1.7002
			c0.30469-0.42188,0.67188-0.76367,1.09961-1.02539c0.42773-0.26074,0.84961-0.43848,1.2666-0.5332
			C23.07965,96.04785,23.52692,96,24.00446,96s0.9248,0.04785,1.3418,0.1416c0.41699,0.09473,0.83887,0.27246,1.2666,0.5332
			c0.42773,0.26172,0.79395,0.60352,1.09961,1.02539s0.55566,0.98926,0.75,1.7002s0.29199,1.5332,0.29199,2.46582
			c0,0.68945,0.07715,1.35059,0.2334,1.9834c0.15527,0.63379,0.33887,1.15332,0.5498,1.55859
			c0.21094,0.40625,0.43848,0.77246,0.68359,1.10059c0.24414,0.32715,0.43359,0.55566,0.56641,0.68262
			C30.92145,107.31934,31.0152,107.40039,31.07086,107.43359z"/>
	</g>
	<g id="XMLID_109_">
		<path id="XMLID_110_" fill="#FFFFFF" d="M47.60114,107.43359c0.31152,0.25586,0.43945,0.58301,0.38379,0.9834
			c-0.05566,0.39941-0.26172,0.67773-0.61719,0.83301l-0.08301,0.0332c-0.05566,0.02246-0.125,0.04785-0.20801,0.0752
			c-0.08398,0.02734-0.18945,0.06445-0.31738,0.1084s-0.26953,0.08887-0.4248,0.13281
			c-0.15527,0.04492-0.32812,0.0918-0.5166,0.1416c-0.18848,0.05078-0.39453,0.10059-0.61621,0.15039
			c-0.22266,0.0498-0.45605,0.09961-0.7002,0.15039c-0.24512,0.0498-0.51172,0.09375-0.7998,0.13281
			c-0.28906,0.03906-0.58398,0.0752-0.88379,0.1084c-0.14453,0.5-0.42773,0.91113-0.84961,1.2334
			C41.54548,111.83887,41.06794,112,40.53474,112s-1.01074-0.16113-1.43359-0.4834c-0.42188-0.32227-0.70508-0.7334-0.84961-1.2334
			c-1.74512-0.17773-3.25586-0.52246-4.53369-1.0332c-0.37744-0.16699-0.59424-0.4502-0.6499-0.84961
			c-0.0332-0.40039,0.1001-0.72266,0.3999-0.9668c0.05566-0.0332,0.15039-0.11426,0.28369-0.24219
			c0.1333-0.12695,0.32178-0.3584,0.56641-0.69141c0.24414-0.33301,0.47266-0.7002,0.68359-1.09961
			c0.21094-0.40039,0.39453-0.91699,0.5498-1.55078c0.15527-0.63281,0.2334-1.29395,0.2334-1.9834
			c0-0.93262,0.09668-1.75488,0.29199-2.46582c0.19434-0.71094,0.44434-1.27832,0.75-1.7002
			c0.30469-0.42188,0.67188-0.76367,1.09961-1.02539c0.42773-0.26074,0.84961-0.43848,1.2666-0.5332
			C39.60993,96.04785,40.0572,96,40.53474,96s0.9248,0.04785,1.3418,0.1416c0.41699,0.09473,0.83887,0.27246,1.2666,0.5332
			c0.42773,0.26172,0.79395,0.60352,1.09961,1.02539s0.55566,0.98926,0.75,1.7002s0.29199,1.5332,0.29199,2.46582
			c0,0.68945,0.07715,1.35059,0.2334,1.9834c0.15527,0.63379,0.33887,1.15332,0.5498,1.55859
			c0.21094,0.40625,0.43848,0.77246,0.68359,1.10059c0.24414,0.32715,0.43359,0.55566,0.56641,0.68262
			C47.45173,107.31934,47.54548,107.40039,47.60114,107.43359z"/>
	</g>
</g>
<g id="time">
	<g id="XMLID_14_">
		<path id="XMLID_15_" fill="#AAAAAA" d="M3.98929,81.0752C5.21683,80.3584,6.55325,80,7.99759,80s2.78027,0.3584,4.0083,1.0752
			c1.22754,0.7168,2.2002,1.68848,2.9165,2.91602c0.7168,1.22852,1.0752,2.56445,1.0752,4.00879s-0.3584,2.78027-1.0752,4.00879
			c-0.71631,1.22754-1.68896,2.19922-2.9165,2.91602C10.77786,95.6416,9.44193,96,7.99759,96s-2.78076-0.3584-4.0083-1.0752
			c-1.22803-0.7168-2.2002-1.68848-2.9165-2.91602C0.35599,90.78027-0.00241,89.44434-0.00241,88s0.3584-2.78027,1.0752-4.00879
			C1.78909,82.76367,2.76126,81.79199,3.98929,81.0752z M3.79739,92.2002c1.17773,1.17773,2.57764,1.7666,4.2002,1.7666
			c1.62207,0,3.02197-0.58887,4.2002-1.7666c1.17725-1.17773,1.7666-2.57812,1.7666-4.2002s-0.58936-3.02246-1.7666-4.2002
			c-1.17822-1.17773-2.57812-1.7666-4.2002-1.7666c-1.62256,0-3.02246,0.58887-4.2002,1.7666S2.03079,86.37793,2.03079,88
			S2.61966,91.02246,3.79739,92.2002z M11.06448,91.13379c-0.16699,0.15527-0.36426,0.23242-0.5918,0.23242
			c-0.22803,0-0.42529-0.07715-0.5918-0.23242l-2.6333-2.10059c-0.2334-0.21094-0.33887-0.46094-0.31689-0.75l0.18359-4.2334
			c0.01074-0.24414,0.10547-0.4502,0.2832-0.61621c0.17773-0.16699,0.38867-0.24414,0.6333-0.2334
			c0.2334,0.01074,0.43066,0.09961,0.5918,0.2666s0.24707,0.36133,0.2583,0.58301l0.1665,3.7832l2.06689,2.0332
			c0.1665,0.17871,0.24414,0.39258,0.2334,0.64258C11.33646,90.75879,11.24173,90.9668,11.06448,91.13379z"/>
	</g>
	<g id="XMLID_91_">
		<path id="XMLID_92_" d="M19.9917,81.0752C21.21924,80.3584,22.55566,80,24,80s2.78027,0.3584,4.0083,1.0752
			c1.22754,0.7168,2.2002,1.68848,2.9165,2.91602C31.6416,85.21973,32,86.55566,32,88s-0.3584,2.78027-1.0752,4.00879
			c-0.71631,1.22754-1.68896,2.19922-2.9165,2.91602C26.78027,95.6416,25.44434,96,24,96s-2.78076-0.3584-4.0083-1.0752
			c-1.22803-0.7168-2.2002-1.68848-2.9165-2.91602C16.3584,90.78027,16,89.44434,16,88s0.3584-2.78027,1.0752-4.00879
			C17.7915,82.76367,18.76367,81.79199,19.9917,81.0752z M19.7998,92.2002c1.17773,1.17773,2.57764,1.7666,4.2002,1.7666
			c1.62207,0,3.02197-0.58887,4.2002-1.7666c1.17725-1.17773,1.7666-2.57812,1.7666-4.2002s-0.58936-3.02246-1.7666-4.2002
			c-1.17822-1.17773-2.57812-1.7666-4.2002-1.7666c-1.62256,0-3.02246,0.58887-4.2002,1.7666S18.0332,86.37793,18.0332,88
			S18.62207,91.02246,19.7998,92.2002z M27.06689,91.13379c-0.16699,0.15527-0.36426,0.23242-0.5918,0.23242
			c-0.22803,0-0.42529-0.07715-0.5918-0.23242L23.25,89.0332c-0.2334-0.21094-0.33887-0.46094-0.31689-0.75l0.18359-4.2334
			c0.01074-0.24414,0.10547-0.4502,0.2832-0.61621c0.17773-0.16699,0.38867-0.24414,0.6333-0.2334
			c0.2334,0.01074,0.43066,0.09961,0.5918,0.2666s0.24707,0.36133,0.2583,0.58301l0.1665,3.7832l2.06689,2.0332
			c0.1665,0.17871,0.24414,0.39258,0.2334,0.64258C27.33887,90.75879,27.24414,90.9668,27.06689,91.13379z"/>
	</g>
	<g id="XMLID_80_">
		<path id="XMLID_81_" fill="#FFFFFF" d="M35.98929,81.0752C37.21683,80.3584,38.55325,80,39.99759,80s2.78027,0.3584,4.0083,1.0752
			c1.22754,0.7168,2.2002,1.68848,2.9165,2.91602c0.7168,1.22852,1.0752,2.56445,1.0752,4.00879s-0.3584,2.78027-1.0752,4.00879
			c-0.71631,1.22754-1.68896,2.19922-2.9165,2.91602C42.77786,95.6416,41.44193,96,39.99759,96s-2.78076-0.3584-4.0083-1.0752
			c-1.22803-0.7168-2.2002-1.68848-2.9165-2.91602c-0.7168-1.22852-1.0752-2.56445-1.0752-4.00879s0.3584-2.78027,1.0752-4.00879
			C33.78909,82.76367,34.76126,81.79199,35.98929,81.0752z M35.79739,92.2002c1.17773,1.17773,2.57764,1.7666,4.2002,1.7666
			c1.62207,0,3.02197-0.58887,4.2002-1.7666c1.17725-1.17773,1.7666-2.57812,1.7666-4.2002s-0.58936-3.02246-1.7666-4.2002
			c-1.17822-1.17773-2.57812-1.7666-4.2002-1.7666c-1.62256,0-3.02246,0.58887-4.2002,1.7666s-1.7666,2.57812-1.7666,4.2002
			S34.61966,91.02246,35.79739,92.2002z M43.06448,91.13379c-0.16699,0.15527-0.36426,0.23242-0.5918,0.23242
			c-0.22803,0-0.42529-0.07715-0.5918-0.23242l-2.6333-2.10059c-0.2334-0.21094-0.33887-0.46094-0.31689-0.75l0.18359-4.2334
			c0.01074-0.24414,0.10547-0.4502,0.2832-0.61621c0.17773-0.16699,0.38867-0.24414,0.6333-0.2334
			c0.2334,0.01074,0.43066,0.09961,0.5918,0.2666s0.24707,0.36133,0.2583,0.58301l0.1665,3.7832l2.06689,2.0332
			c0.1665,0.17871,0.24414,0.39258,0.2334,0.64258C43.33646,90.75879,43.24173,90.9668,43.06448,91.13379z"/>
	</g>
</g>
<g id="share">
	<g id="XMLID_133_">
		<path id="XMLID_134_" fill="#AAAAAA" d="M16,77c0,1.65625-1.34375,3-3,3s-3-1.34375-3-3v-0.00781l-5.19531-2.59375
			C4.30469,74.77344,3.67969,75,3,75c-1.65625,0-3-1.34375-3-3s1.34375-3,3-3c0.67969,0,1.30469,0.22656,1.80469,0.60156
			L10,67.00781V67c0-1.65625,1.34375-3,3-3s3,1.34375,3,3s-1.34375,3-3,3c-0.67969,0-1.30469-0.22656-1.80469-0.60156L5.98438,72
			l5.21094,2.60156C11.69531,74.22656,12.32031,74,13,74C14.65625,74,16,75.34375,16,77z"/>
	</g>
	<g id="XMLID_72_">
		<path id="XMLID_75_" fill="#FFFFFF" d="M47.99759,77c0,1.65625-1.34375,3-3,3s-3-1.34375-3-3v-0.00781l-5.19531-2.59375
			c-0.5,0.375-1.125,0.60156-1.80469,0.60156c-1.65625,0-3-1.34375-3-3s1.34375-3,3-3c0.67969,0,1.30469,0.22656,1.80469,0.60156
			l5.19531-2.59375V67c0-1.65625,1.34375-3,3-3s3,1.34375,3,3s-1.34375,3-3,3c-0.67969,0-1.30469-0.22656-1.80469-0.60156
			L37.98196,72l5.21094,2.60156c0.5-0.375,1.125-0.60156,1.80469-0.60156C46.65384,74,47.99759,75.34375,47.99759,77z"/>
	</g>
	<g id="XMLID_59_">
		<path id="XMLID_60_" d="M32,77c0,1.65625-1.34375,3-3,3s-3-1.34375-3-3v-0.00781l-5.19531-2.59375
			C20.30469,74.77344,19.67969,75,19,75c-1.65625,0-3-1.34375-3-3s1.34375-3,3-3c0.67969,0,1.30469,0.22656,1.80469,0.60156
			L26,67.00781V67c0-1.65625,1.34375-3,3-3s3,1.34375,3,3s-1.34375,3-3,3c-0.67969,0-1.30469-0.22656-1.80469-0.60156L21.98438,72
			l5.21094,2.60156C27.69531,74.22656,28.32031,74,29,74C30.65625,74,32,75.34375,32,77z"/>
	</g>
</g>
<g id="email">
	<g id="XMLID_16_">
		<path id="XMLID_17_" fill="#AAAAAA" d="M7.99881,57l-8-6c0-0.55469,0.44531-1,1-1h14c0.55469,0,1,0.44531,1,1L7.99881,57z
			 M7.99881,58.79688l8-6V61c0,0.55469-0.44531,1-1,1h-14c-0.55469,0-1-0.44531-1-1v-8.20312L7.99881,58.79688z"/>
	</g>
	<g id="XMLID_62_">
		<path id="XMLID_63_" d="M24,57l-8-6c0-0.55469,0.44531-1,1-1h14c0.55469,0,1,0.44531,1,1L24,57z M24,58.79688l8-6V61
			c0,0.55469-0.44531,1-1,1H17c-0.55469,0-1-0.44531-1-1v-8.20312L24,58.79688z"/>
	</g>
	<g id="XMLID_58_">
		<path id="XMLID_66_" fill="#FFFFFF" d="M39.99759,57l-8-6c0-0.55469,0.44531-1,1-1h14c0.55469,0,1,0.44531,1,1L39.99759,57z
			 M39.99759,58.79688l8-6V61c0,0.55469-0.44531,1-1,1h-14c-0.55469,0-1-0.44531-1-1v-8.20312L39.99759,58.79688z"/>
	</g>
</g>
<g id="user">
	<g id="XMLID_32_">
		<path id="XMLID_73_" fill="#AAAAAA" d="M15.0835,47.18359l-0.06689,0.0166c-0.04443,0.01123-0.11133,0.0249-0.19971,0.0415
			c-0.08936,0.0166-0.19482,0.03906-0.31689,0.06689c-0.12256,0.02783-0.2749,0.05566-0.4585,0.08301
			c-0.18311,0.02783-0.38037,0.05322-0.59131,0.0752C11.96094,47.64453,10.14404,47.7334,8,47.7334
			c-3.25586,0-5.6167-0.18311-7.0835-0.5498c-0.1333-0.04443-0.23584-0.125-0.30811-0.2417s-0.0918-0.24707-0.05859-0.3916
			c0.15576-0.7334,0.42773-1.33887,0.81689-1.81689c0.38867-0.47754,0.91113-0.92236,1.56641-1.3335
			c0.2002-0.12207,0.59473-0.30518,1.18359-0.5498C4.47217,42.70557,4.75,42.58936,4.9502,42.5
			c0.19971-0.08887,0.41357-0.22217,0.6416-0.3999c0.22754-0.17773,0.375-0.36084,0.44141-0.5498
			c0.1333-0.38916-0.02783-0.93896-0.4834-1.65039c-1.41113-2.24414-1.66113-4.1499-0.75-5.71631
			c0.34424-0.6001,0.80029-1.06934,1.3667-1.40869C6.7334,32.43604,7.34424,32.2666,8,32.2666
			c0.65527,0,1.26367,0.16943,1.8252,0.5083c0.56055,0.33936,1.01904,0.80859,1.375,1.40869
			c0.91064,1.55566,0.6665,3.46094-0.7334,5.71631c-0.44482,0.7002-0.61133,1.25-0.5,1.65039
			c0.08887,0.27783,0.29395,0.51074,0.6167,0.69971c0.32178,0.18896,0.76074,0.38916,1.31641,0.6001
			c0.56689,0.24463,0.95557,0.42773,1.16699,0.5498c0.65527,0.41113,1.17725,0.85596,1.56641,1.3335
			c0.38867,0.47803,0.66113,1.0835,0.81689,1.81689c0.0332,0.14453,0.01367,0.2749-0.05859,0.3916
			S15.2168,47.13916,15.0835,47.18359z"/>
	</g>
	<g id="XMLID_77_">
		<path id="XMLID_78_" d="M31.0835,47.18359l-0.06689,0.0166c-0.04443,0.01123-0.11133,0.0249-0.19971,0.0415
			c-0.08936,0.0166-0.19482,0.03906-0.31689,0.06689c-0.12256,0.02783-0.2749,0.05566-0.4585,0.08301
			c-0.18311,0.02783-0.38037,0.05322-0.59131,0.0752c-1.48926,0.17773-3.30615,0.2666-5.4502,0.2666
			c-3.25586,0-5.6167-0.18311-7.0835-0.5498c-0.1333-0.04443-0.23584-0.125-0.30811-0.2417s-0.0918-0.24707-0.05859-0.3916
			c0.15576-0.7334,0.42773-1.33887,0.81689-1.81689c0.38867-0.47754,0.91113-0.92236,1.56641-1.3335
			c0.2002-0.12207,0.59473-0.30518,1.18359-0.5498c0.35547-0.14453,0.6333-0.26074,0.8335-0.3501
			c0.19971-0.08887,0.41357-0.22217,0.6416-0.3999c0.22754-0.17773,0.375-0.36084,0.44141-0.5498
			c0.1333-0.38916-0.02783-0.93896-0.4834-1.65039c-1.41113-2.24414-1.66113-4.1499-0.75-5.71631
			c0.34424-0.6001,0.80029-1.06934,1.3667-1.40869c0.56689-0.33887,1.17773-0.5083,1.8335-0.5083
			c0.65527,0,1.26367,0.16943,1.8252,0.5083c0.56055,0.33936,1.01904,0.80859,1.375,1.40869
			c0.91064,1.55566,0.6665,3.46094-0.7334,5.71631c-0.44482,0.7002-0.61133,1.25-0.5,1.65039
			c0.08887,0.27783,0.29395,0.51074,0.6167,0.69971c0.32178,0.18896,0.76074,0.38916,1.31641,0.6001
			c0.56689,0.24463,0.95557,0.42773,1.16699,0.5498c0.65527,0.41113,1.17725,0.85596,1.56641,1.3335
			c0.38867,0.47803,0.66113,1.0835,0.81689,1.81689c0.0332,0.14453,0.01367,0.2749-0.05859,0.3916
			S31.2168,47.13916,31.0835,47.18359z"/>
	</g>
	<g id="XMLID_52_">
		<path id="XMLID_53_" fill="#FFFFFF" d="M47.0835,47.18359l-0.06689,0.0166c-0.04443,0.01123-0.11133,0.0249-0.19971,0.0415
			c-0.08936,0.0166-0.19482,0.03906-0.31689,0.06689c-0.12256,0.02783-0.2749,0.05566-0.4585,0.08301
			c-0.18311,0.02783-0.38037,0.05322-0.59131,0.0752c-1.48926,0.17773-3.30615,0.2666-5.4502,0.2666
			c-3.25586,0-5.6167-0.18311-7.0835-0.5498c-0.1333-0.04443-0.23584-0.125-0.30811-0.2417s-0.0918-0.24707-0.05859-0.3916
			c0.15576-0.7334,0.42773-1.33887,0.81689-1.81689c0.38867-0.47754,0.91113-0.92236,1.56641-1.3335
			c0.2002-0.12207,0.59473-0.30518,1.18359-0.5498c0.35547-0.14453,0.6333-0.26074,0.8335-0.3501
			c0.19971-0.08887,0.41357-0.22217,0.6416-0.3999c0.22754-0.17773,0.375-0.36084,0.44141-0.5498
			c0.1333-0.38916-0.02783-0.93896-0.4834-1.65039c-1.41113-2.24414-1.66113-4.1499-0.75-5.71631
			c0.34424-0.6001,0.80029-1.06934,1.3667-1.40869c0.56689-0.33887,1.17773-0.5083,1.8335-0.5083
			c0.65527,0,1.26367,0.16943,1.8252,0.5083c0.56055,0.33936,1.01904,0.80859,1.375,1.40869
			c0.91064,1.55566,0.6665,3.46094-0.7334,5.71631c-0.44482,0.7002-0.61133,1.25-0.5,1.65039
			c0.08887,0.27783,0.29395,0.51074,0.6167,0.69971c0.32178,0.18896,0.76074,0.38916,1.31641,0.6001
			c0.56689,0.24463,0.95557,0.42773,1.16699,0.5498c0.65527,0.41113,1.17725,0.85596,1.56641,1.3335
			c0.38867,0.47803,0.66113,1.0835,0.81689,1.81689c0.0332,0.14453,0.01367,0.2749-0.05859,0.3916
			S47.2168,47.13916,47.0835,47.18359z"/>
	</g>
</g>
<g id="search">
	<g id="XMLID_20_">
		<path id="XMLID_21_" fill="#AAAAAA" d="M4.6167,17.9502C5.9165,16.6499,7.48877,16,9.3335,16
			c1.84424,0,3.4165,0.6499,4.71631,1.9502C15.3501,19.25,16,20.82227,16,22.6665c0,1.84473-0.6499,3.41699-1.95019,4.7168
			c-1.2998,1.2998-2.87207,1.9502-4.71631,1.9502c-0.97803,0-1.90039-0.2002-2.7666-0.6001l-4.01709,2.94971
			c-0.35547,0.26709-0.75,0.3667-1.18311,0.30029c-0.43359-0.06689-0.7832-0.27783-1.0498-0.6333
			C0.10547,31.06104,0,30.7417,0,30.3916s0.10547-0.66943,0.31689-0.9585l2.94971-4c-0.3999-0.86621-0.6001-1.78857-0.6001-2.7666
			C2.6665,20.82227,3.3169,19.25,4.6167,17.9502z M6.0332,25.9668c0.91113,0.91113,2.01123,1.3667,3.30029,1.3667
			c1.28857,0,2.38867-0.45557,3.2998-1.3667S14,23.95557,14,22.6665c0-1.28857-0.45557-2.38867-1.3667-3.2998S10.62207,18,9.3335,18
			c-1.28906,0-2.38916,0.45557-3.30029,1.3667s-1.3667,2.01123-1.3667,3.2998C4.6665,23.95557,5.12207,25.05566,6.0332,25.9668z"/>
	</g>
	<g id="XMLID_26_">
		<path id="XMLID_31_" d="M20.6167,17.9502C21.9165,16.6499,23.48877,16,25.3335,16c1.84424,0,3.4165,0.6499,4.71631,1.9502
			C31.3501,19.25,32,20.82227,32,22.6665c0,1.84473-0.6499,3.41699-1.9502,4.7168c-1.2998,1.2998-2.87207,1.9502-4.71631,1.9502
			c-0.97803,0-1.90039-0.2002-2.7666-0.6001l-4.01709,2.94971c-0.35547,0.26709-0.75,0.3667-1.18311,0.30029
			c-0.43359-0.06689-0.7832-0.27783-1.0498-0.6333C16.10547,31.06104,16,30.7417,16,30.3916s0.10547-0.66943,0.31689-0.9585
			l2.94971-4c-0.3999-0.86621-0.6001-1.78857-0.6001-2.7666C18.6665,20.82227,19.31689,19.25,20.6167,17.9502z M22.0332,25.9668
			c0.91113,0.91113,2.01123,1.3667,3.30029,1.3667c1.28857,0,2.38867-0.45557,3.2998-1.3667S30,23.95557,30,22.6665
			c0-1.28857-0.45557-2.38867-1.3667-3.2998S26.62207,18,25.3335,18c-1.28906,0-2.38916,0.45557-3.30029,1.3667
			s-1.3667,2.01123-1.3667,3.2998C20.6665,23.95557,21.12207,25.05566,22.0332,25.9668z"/>
	</g>
	<g id="XMLID_13_">
		<path id="XMLID_43_" fill="#FFFFFF" d="M36.61429,17.9502C37.91409,16.6499,39.48636,16,41.33109,16
			c1.84424,0,3.4165,0.6499,4.71631,1.9502c1.30029,1.2998,1.9502,2.87207,1.9502,4.71631c0,1.84473-0.6499,3.41699-1.9502,4.7168
			c-1.2998,1.2998-2.87207,1.9502-4.71631,1.9502c-0.97803,0-1.90039-0.2002-2.7666-0.6001l-4.01709,2.94971
			c-0.35547,0.26709-0.75,0.3667-1.18311,0.30029c-0.43359-0.06689-0.7832-0.27783-1.0498-0.6333
			c-0.21143-0.28906-0.31689-0.6084-0.31689-0.9585s0.10547-0.66943,0.31689-0.9585l2.94971-4
			c-0.3999-0.86621-0.6001-1.78857-0.6001-2.7666C34.66409,20.82227,35.31448,19.25,36.61429,17.9502z M38.03079,25.9668
			c0.91113,0.91113,2.01123,1.3667,3.30029,1.3667c1.28857,0,2.38867-0.45557,3.2998-1.3667s1.3667-2.01123,1.3667-3.30029
			c0-1.28857-0.45557-2.38867-1.3667-3.2998S42.61966,18,41.33109,18c-1.28906,0-2.38916,0.45557-3.30029,1.3667
			s-1.3667,2.01123-1.3667,3.2998C36.66409,23.95557,37.11966,25.05566,38.03079,25.9668z"/>
	</g>
</g>
<g id="more">
	<circle id="XMLID_1_" fill="#AAAAAA" cx="8" cy="8" r="2"/>
	<circle id="XMLID_6_" fill="#AAAAAA" cx="2" cy="8" r="2"/>
	<circle id="XMLID_7_" fill="#AAAAAA" cx="14" cy="8" r="2"/>
	<circle id="XMLID_71_" cx="24" cy="8" r="2"/>
	<circle id="XMLID_70_" cx="18" cy="8" r="2"/>
	<circle id="XMLID_69_" cx="30" cy="8" r="2"/>
	<circle id="XMLID_48_" fill="#FFFFFF" cx="40" cy="8" r="2"/>
	<circle id="XMLID_47_" fill="#FFFFFF" cx="34" cy="8" r="2"/>
	<circle id="XMLID_46_" fill="#FFFFFF" cx="46" cy="8" r="2"/>
</g>
<g id="guides">
	<g>
		<path fill="#5F99CF" d="M15.23524,328.81351c0.08247,0.3074,0.11996,0.62228,0.11996,0.9447
			c0,2.8266-3.29147,5.12088-7.3552,5.12088s-7.3552-2.29428-7.3552-5.12088c0-0.32242,0.03749-0.6373,0.11996-0.9447
			C0.3074,328.49109,0,327.95877,0,327.35895c0-0.9747,0.78725-1.76193,1.76195-1.76193c0.44986,0,0.86223,0.17242,1.16963,0.44986
			c1.30459-0.85474,3.05155-1.38708,4.97844-1.40958l0.99719-2.99905c0.05998-0.18744,0.25492-0.29993,0.44986-0.26242
			l2.63918,0.53232c0.23992-0.47235,0.71978-0.78723,1.2821-0.78723c0.79475,0,1.43955,0.64478,1.43955,1.43954
			c0,0.79474-0.6448,1.43954-1.43955,1.43954c-0.75726,0-1.37957-0.58481-1.43205-1.32709l-2.30178-0.46484l-0.81725,2.45923
			c1.67198,0.11246,3.1865,0.61481,4.34114,1.37958c0.3074-0.27744,0.71978-0.44986,1.16963-0.44986
			c0.9747,0,1.76195,0.78723,1.76195,1.76193C16,327.95877,15.69259,328.49109,15.23524,328.81351z M5.60075,329.75821
			c0.61481,0,1.11715-0.50235,1.11715-1.11716c0-0.62231-0.50234-1.12466-1.11715-1.12466s-1.11715,0.50235-1.11715,1.12466
			C4.4836,329.25586,4.98594,329.75821,5.60075,329.75821z M10.71415,331.61761c-0.11996-0.14993-0.34489-0.17993-0.50234-0.05997
			C9.61949,332.02249,8.83224,332.28491,8,332.28491c-0.83224,0-1.61949-0.26242-2.21181-0.72726
			c-0.15745-0.11996-0.38238-0.08997-0.50234,0.05997c-0.11996,0.15747-0.08997,0.37488,0.05998,0.50235
			C6.0656,332.68228,7.01031,332.98969,8,332.98969s1.9344-0.3074,2.65417-0.86972
			C10.80412,331.99249,10.83411,331.77509,10.71415,331.61761z M11.5164,328.64105c0-0.62231-0.50234-1.12466-1.11715-1.12466
			s-1.11715,0.50235-1.11715,1.12466c0,0.61481,0.50234,1.11716,1.11715,1.11716S11.5164,329.25586,11.5164,328.64105z"/>
	</g>
	<g>
		<path d="M31.23524,328.81351c0.08248,0.3074,0.11996,0.62228,0.11996,0.9447c0,2.8266-3.29147,5.12088-7.3552,5.12088
			s-7.3552-2.29428-7.3552-5.12088c0-0.32242,0.03749-0.6373,0.11996-0.9447C16.3074,328.49109,16,327.95877,16,327.35895
			c0-0.9747,0.78725-1.76193,1.76195-1.76193c0.44986,0,0.86223,0.17242,1.16964,0.44986
			c1.30459-0.85474,3.05155-1.38708,4.97844-1.40958l0.99719-2.99905c0.05998-0.18744,0.25492-0.29993,0.44986-0.26242
			l2.63918,0.53232c0.23993-0.47235,0.71977-0.78723,1.2821-0.78723c0.79475,0,1.43955,0.64478,1.43955,1.43954
			c0,0.79474-0.6448,1.43954-1.43955,1.43954c-0.75726,0-1.37957-0.58481-1.43205-1.32709l-2.30178-0.46484l-0.81724,2.45923
			c1.67198,0.11246,3.1865,0.61481,4.34114,1.37958c0.3074-0.27744,0.71978-0.44986,1.16963-0.44986
			c0.9747,0,1.76195,0.78723,1.76195,1.76193C32,327.95877,31.69259,328.49109,31.23524,328.81351z M21.60075,329.75821
			c0.61481,0,1.11715-0.50235,1.11715-1.11716c0-0.62231-0.50234-1.12466-1.11715-1.12466
			c-0.61481,0-1.11715,0.50235-1.11715,1.12466C20.4836,329.25586,20.98594,329.75821,21.60075,329.75821z M26.71415,331.61761
			c-0.11996-0.14993-0.34489-0.17993-0.50234-0.05997c-0.59231,0.46484-1.37957,0.72726-2.21181,0.72726
			c-0.83224,0-1.61949-0.26242-2.21181-0.72726c-0.15745-0.11996-0.38238-0.08997-0.50234,0.05997
			c-0.11996,0.15747-0.08997,0.37488,0.05998,0.50235c0.71977,0.56232,1.66448,0.86972,2.65417,0.86972
			s1.9344-0.3074,2.65417-0.86972C26.80412,331.99249,26.83411,331.77509,26.71415,331.61761z M27.5164,328.64105
			c0-0.62231-0.50234-1.12466-1.11715-1.12466c-0.61481,0-1.11715,0.50235-1.11715,1.12466
			c0,0.61481,0.50234,1.11716,1.11715,1.11716C27.01406,329.75821,27.5164,329.25586,27.5164,328.64105z"/>
	</g>
	<g>
		<path fill="#FFFFFF" d="M47.23524,328.81351c0.08247,0.3074,0.11996,0.62228,0.11996,0.9447
			c0,2.8266-3.29147,5.12088-7.3552,5.12088s-7.3552-2.29428-7.3552-5.12088c0-0.32242,0.03749-0.6373,0.11996-0.9447
			C32.3074,328.49109,32,327.95877,32,327.35895c0-0.9747,0.78726-1.76193,1.76195-1.76193
			c0.44986,0,0.86223,0.17242,1.16964,0.44986c1.30459-0.85474,3.05154-1.38708,4.97844-1.40958l0.99719-2.99905
			c0.05998-0.18744,0.25492-0.29993,0.44986-0.26242l2.63918,0.53232c0.23993-0.47235,0.71978-0.78723,1.2821-0.78723
			c0.79475,0,1.43955,0.64478,1.43955,1.43954c0,0.79474-0.6448,1.43954-1.43955,1.43954
			c-0.75726,0-1.37957-0.58481-1.43205-1.32709l-2.30178-0.46484l-0.81725,2.45923c1.67198,0.11246,3.1865,0.61481,4.34114,1.37958
			c0.3074-0.27744,0.71977-0.44986,1.16963-0.44986c0.9747,0,1.76195,0.78723,1.76195,1.76193
			C48,327.95877,47.6926,328.49109,47.23524,328.81351z M37.60075,329.75821c0.61481,0,1.11715-0.50235,1.11715-1.11716
			c0-0.62231-0.50234-1.12466-1.11715-1.12466c-0.61481,0-1.11715,0.50235-1.11715,1.12466
			C36.4836,329.25586,36.98594,329.75821,37.60075,329.75821z M42.71415,331.61761
			c-0.11996-0.14993-0.34489-0.17993-0.50234-0.05997c-0.59232,0.46484-1.37957,0.72726-2.21181,0.72726
			c-0.83224,0-1.6195-0.26242-2.21181-0.72726c-0.15745-0.11996-0.38238-0.08997-0.50234,0.05997
			c-0.11996,0.15747-0.08997,0.37488,0.05998,0.50235c0.71977,0.56232,1.66448,0.86972,2.65417,0.86972
			c0.98969,0,1.93439-0.3074,2.65417-0.86972C42.80412,331.99249,42.83411,331.77509,42.71415,331.61761z M43.5164,328.64105
			c0-0.62231-0.50234-1.12466-1.11715-1.12466s-1.11715,0.50235-1.11715,1.12466c0,0.61481,0.50235,1.11716,1.11715,1.11716
			S43.5164,329.25586,43.5164,328.64105z"/>
	</g>
	<g>
		<path fill="#4DC247" d="M15.96113,343.96112c0,4.40039-3.56074,7.96112-7.96113,7.96112
			c-1.50049,0-2.8999-0.41205-4.09718-1.13507L0.11662,352l1.22838-3.6618c-0.8241-1.25949-1.30612-2.75998-1.30612-4.37708
			C0.03887,339.56073,3.59961,336,8,336S15.96113,339.56073,15.96113,343.96112z M12.48591,346.20798
			c-0.04665-0.09329-0.19436-0.15549-0.41205-0.27213c-0.21769-0.11661-1.29057-0.69971-1.48494-0.77744
			c-0.20214-0.08554-0.34985-0.12439-0.50535,0.09329s-0.59864,0.69971-0.73858,0.83963
			c-0.13217,0.14774-0.26433,0.15552-0.48202,0.03888c-0.21769-0.11661-0.92517-0.38095-1.7415-1.16617
			c-0.63751-0.6142-1.05734-1.36057-1.17396-1.586c-0.12439-0.22546,0-0.3421,0.10884-0.44318
			c0.10884-0.10104,0.23324-0.25656,0.34985-0.38095s0.15549-0.21768,0.23324-0.3576c0.08552-0.14774,0.05442-0.27991,0-0.38873
			c-0.05442-0.11664-0.45092-1.22061-0.62196-1.67154c-0.17104-0.45093-0.35763-0.38873-0.48202-0.38873
			c-0.13217-0.00775-0.27988-0.0311-0.4276-0.03885c-0.14772-0.00778-0.38873,0.03885-0.59864,0.25656
			c-0.21769,0.21768-0.80855,0.7308-0.84742,1.81924c-0.03887,1.09619,0.71526,2.17685,0.81633,2.33234
			c0.10884,0.14774,1.44606,2.5112,3.66181,3.49078c2.22352,0.9718,2.23907,0.67639,2.64334,0.65305
			c0.41205-0.02332,1.32945-0.48978,1.53936-1.0029C12.52478,346.7522,12.54033,346.30127,12.48591,346.20798z"/>
	</g>
	<g>
		<path d="M31.96113,343.96112c0,4.40039-3.56074,7.96112-7.96113,7.96112c-1.50049,0-2.8999-0.41205-4.09718-1.13507L16.11662,352
			l1.22838-3.6618c-0.8241-1.25949-1.30612-2.75998-1.30612-4.37708C16.03887,339.56073,19.59961,336,24,336
			S31.96113,339.56073,31.96113,343.96112z M28.48591,346.20798c-0.04665-0.09329-0.19436-0.15549-0.41205-0.27213
			c-0.21769-0.11661-1.29057-0.69971-1.48494-0.77744c-0.20214-0.08554-0.34985-0.12439-0.50534,0.09329
			s-0.59864,0.69971-0.73858,0.83963c-0.13217,0.14774-0.26434,0.15552-0.48202,0.03888
			c-0.21769-0.11661-0.92517-0.38095-1.7415-1.16617c-0.63751-0.6142-1.05734-1.36057-1.17396-1.586
			c-0.12439-0.22546,0-0.3421,0.10884-0.44318c0.10884-0.10104,0.23324-0.25656,0.34985-0.38095
			c0.11662-0.12439,0.15549-0.21768,0.23324-0.3576c0.08552-0.14774,0.05442-0.27991,0-0.38873
			c-0.05442-0.11664-0.45092-1.22061-0.62196-1.67154s-0.35763-0.38873-0.48202-0.38873
			c-0.13217-0.00775-0.27988-0.0311-0.4276-0.03885c-0.14772-0.00778-0.38873,0.03885-0.59864,0.25656
			c-0.21769,0.21768-0.80855,0.7308-0.84742,1.81924c-0.03887,1.09619,0.71526,2.17685,0.81633,2.33234
			c0.10884,0.14774,1.44606,2.5112,3.66181,3.49078c2.22352,0.9718,2.23907,0.67639,2.64334,0.65305
			c0.41205-0.02332,1.32944-0.48978,1.53936-1.0029C28.52478,346.7522,28.54033,346.30127,28.48591,346.20798z"/>
	</g>
	<g>
		<path fill="#FFFFFF" d="M47.96113,343.96112c0,4.40039-3.56074,7.96112-7.96113,7.96112
			c-1.50048,0-2.8999-0.41205-4.09718-1.13507L32.11662,352l1.22837-3.6618c-0.8241-1.25949-1.30612-2.75998-1.30612-4.37708
			C32.03887,339.56073,35.59961,336,40,336S47.96113,339.56073,47.96113,343.96112z M44.48591,346.20798
			c-0.04665-0.09329-0.19436-0.15549-0.41205-0.27213c-0.21769-0.11661-1.29057-0.69971-1.48494-0.77744
			c-0.20214-0.08554-0.34985-0.12439-0.50534,0.09329s-0.59864,0.69971-0.73858,0.83963
			c-0.13216,0.14774-0.26433,0.15552-0.48202,0.03888c-0.21769-0.11661-0.92517-0.38095-1.74149-1.16617
			c-0.63751-0.6142-1.05734-1.36057-1.17396-1.586c-0.12439-0.22546,0-0.3421,0.10884-0.44318
			c0.10884-0.10104,0.23323-0.25656,0.34985-0.38095s0.15549-0.21768,0.23323-0.3576c0.08552-0.14774,0.05442-0.27991,0-0.38873
			c-0.05442-0.11664-0.45092-1.22061-0.62196-1.67154s-0.35763-0.38873-0.48202-0.38873
			c-0.13217-0.00775-0.27988-0.0311-0.4276-0.03885c-0.14772-0.00778-0.38873,0.03885-0.59864,0.25656
			c-0.21769,0.21768-0.80855,0.7308-0.84742,1.81924c-0.03887,1.09619,0.71526,2.17685,0.81633,2.33234
			c0.10884,0.14774,1.44606,2.5112,3.66181,3.49078c2.22352,0.9718,2.23907,0.67639,2.64334,0.65305
			c0.41205-0.02332,1.32945-0.48978,1.53936-1.0029C44.52478,346.7522,44.54033,346.30127,44.48591,346.20798z"/>
	</g>
	<g>
		<path fill="#AAAAAA" d="M14.83301,146.18359c0.18945,0.04395,0.3418,0.13867,0.45898,0.2832
			c0.11621,0.14453,0.1748,0.31152,0.1748,0.5v11.64941c0,0.18945-0.05859,0.35645-0.1748,0.5
			c-0.11719,0.14453-0.26953,0.23926-0.45898,0.28418l-0.13281,0.0332c-0.07812,0.01074-0.18359,0.02734-0.31641,0.0498
			c-0.13379,0.02246-0.29492,0.0498-0.4834,0.08301c-0.18945,0.0332-0.40625,0.06445-0.65039,0.0918
			c-0.24414,0.02832-0.50879,0.05859-0.79199,0.0918s-0.59375,0.06641-0.93262,0.09961
			c-0.33984,0.03418-0.68945,0.06152-1.05078,0.08398c-0.36035,0.02246-0.75488,0.03906-1.18262,0.0498S8.43359,160,8,160
			s-0.86426-0.00586-1.29199-0.0166s-0.82227-0.02734-1.18262-0.0498c-0.36133-0.02246-0.71191-0.0498-1.05078-0.08398
			c-0.33887-0.0332-0.64941-0.06641-0.93262-0.09961s-0.54785-0.06348-0.79199-0.0918
			c-0.24414-0.02734-0.46094-0.05859-0.65039-0.0918c-0.18848-0.0332-0.34961-0.06055-0.4834-0.08301
			c-0.13281-0.02246-0.23828-0.03906-0.31641-0.0498l-0.13281-0.0332c-0.18945-0.04492-0.3418-0.13965-0.45898-0.28418
			c-0.11621-0.14355-0.1748-0.31055-0.1748-0.5V146.9668c0-0.18848,0.05859-0.35547,0.1748-0.5
			c0.11719-0.14453,0.26953-0.23926,0.45898-0.2832c0.01074,0,0.07422-0.01074,0.19141-0.0332
			c0.11621-0.02246,0.29688-0.05273,0.54199-0.0918c0.24414-0.03906,0.5-0.0752,0.7666-0.1084v0.7168
			c0,0.38867,0.13867,0.70801,0.41602,0.95801c0.27832,0.25,0.61133,0.375,1,0.375c-0.2334-0.21094-0.34961-0.47754-0.34961-0.7998
			v-2.13379c0-0.28809,0.10547-0.53809,0.31641-0.75C4.26074,144.10547,4.51074,144,4.7998,144s0.53906,0.10547,0.75,0.31641
			c0.21094,0.21191,0.31641,0.46191,0.31641,0.75v0.58398C6.5332,145.61621,7.24414,145.59961,8,145.59961
			c0.47754,0,0.83301,0.00586,1.06641,0.0166v1.05078c0,0.38867,0.13867,0.70801,0.41699,0.95801
			c0.27734,0.25,0.61133,0.375,1,0.375c-0.2334-0.21094-0.34961-0.47754-0.34961-0.7998v-2.13379
			c0-0.28809,0.10547-0.53809,0.31641-0.75C10.66113,144.10547,10.91113,144,11.2002,144s0.53906,0.10547,0.75,0.31641
			c0.21094,0.21191,0.31641,0.46191,0.31641,0.75v0.75C13.33301,145.92773,14.18848,146.0498,14.83301,146.18359z M8,158.4834
			c2.04395,0,4-0.15527,5.86621-0.4668v-7.61621H2.13379v7.61621C4,158.32812,5.95508,158.4834,8,158.4834z M5.86621,156.7998
			H3.7334v-2.13281h2.13281V156.7998z M9.06641,151.4668v2.13281H6.93359v-2.13281H9.06641z M9.06641,156.7998H6.93359v-2.13281
			h2.13281V156.7998z M12.2666,151.4668v2.13281h-2.13281v-2.13281H12.2666z M12.2666,156.7998h-2.13281v-2.13281h2.13281V156.7998z
			"/>
	</g>
	<g>
		<path d="M30.83301,146.18359c0.18945,0.04395,0.3418,0.13867,0.45898,0.2832c0.11621,0.14453,0.1748,0.31152,0.1748,0.5v11.64941
			c0,0.18945-0.05859,0.35645-0.1748,0.5c-0.11719,0.14453-0.26953,0.23926-0.45898,0.28418l-0.13281,0.0332
			c-0.07812,0.01074-0.18359,0.02734-0.31641,0.0498c-0.13379,0.02246-0.29492,0.0498-0.4834,0.08301
			c-0.18945,0.0332-0.40625,0.06445-0.65039,0.0918c-0.24414,0.02832-0.50879,0.05859-0.79199,0.0918
			s-0.59375,0.06641-0.93262,0.09961c-0.33984,0.03418-0.68945,0.06152-1.05078,0.08398
			c-0.36035,0.02246-0.75488,0.03906-1.18262,0.0498S24.43359,160,24,160s-0.86426-0.00586-1.29199-0.0166
			s-0.82227-0.02734-1.18262-0.0498c-0.36133-0.02246-0.71191-0.0498-1.05078-0.08398
			c-0.33887-0.0332-0.64941-0.06641-0.93262-0.09961s-0.54785-0.06348-0.79199-0.0918
			c-0.24414-0.02734-0.46094-0.05859-0.65039-0.0918c-0.18848-0.0332-0.34961-0.06055-0.4834-0.08301
			c-0.13281-0.02246-0.23828-0.03906-0.31641-0.0498l-0.13281-0.0332c-0.18945-0.04492-0.3418-0.13965-0.45898-0.28418
			c-0.11621-0.14355-0.1748-0.31055-0.1748-0.5V146.9668c0-0.18848,0.05859-0.35547,0.1748-0.5
			c0.11719-0.14453,0.26953-0.23926,0.45898-0.2832c0.01074,0,0.07422-0.01074,0.19141-0.0332
			c0.11621-0.02246,0.29688-0.05273,0.54199-0.0918c0.24414-0.03906,0.5-0.0752,0.7666-0.1084v0.7168
			c0,0.38867,0.13867,0.70801,0.41602,0.95801c0.27832,0.25,0.61133,0.375,1,0.375c-0.2334-0.21094-0.34961-0.47754-0.34961-0.7998
			v-2.13379c0-0.28809,0.10547-0.53809,0.31641-0.75C20.26074,144.10547,20.51074,144,20.7998,144s0.53906,0.10547,0.75,0.31641
			c0.21094,0.21191,0.31641,0.46191,0.31641,0.75v0.58398c0.66699-0.03418,1.37793-0.05078,2.13379-0.05078
			c0.47754,0,0.83301,0.00586,1.06641,0.0166v1.05078c0,0.38867,0.13867,0.70801,0.41699,0.95801
			c0.27734,0.25,0.61133,0.375,1,0.375c-0.2334-0.21094-0.34961-0.47754-0.34961-0.7998v-2.13379
			c0-0.28809,0.10547-0.53809,0.31641-0.75C26.66113,144.10547,26.91113,144,27.2002,144s0.53906,0.10547,0.75,0.31641
			c0.21094,0.21191,0.31641,0.46191,0.31641,0.75v0.75C29.33301,145.92773,30.18848,146.0498,30.83301,146.18359z M24,158.4834
			c2.04395,0,4-0.15527,5.86621-0.4668v-7.61621H18.13379v7.61621C20,158.32812,21.95508,158.4834,24,158.4834z M21.86621,156.7998
			H19.7334v-2.13281h2.13281V156.7998z M25.06641,151.4668v2.13281h-2.13281v-2.13281H25.06641z M25.06641,156.7998h-2.13281
			v-2.13281h2.13281V156.7998z M28.2666,151.4668v2.13281h-2.13281v-2.13281H28.2666z M28.2666,156.7998h-2.13281v-2.13281h2.13281
			V156.7998z"/>
	</g>
	<g>
		<path fill="#FFFFFF" d="M46.36621,146.18359c0.18945,0.04395,0.3418,0.13867,0.45898,0.2832
			c0.11621,0.14453,0.1748,0.31152,0.1748,0.5v11.64941c0,0.18945-0.05859,0.35645-0.1748,0.5
			c-0.11719,0.14453-0.26953,0.23926-0.45898,0.28418l-0.13281,0.0332c-0.07812,0.01074-0.18359,0.02734-0.31641,0.0498
			c-0.13379,0.02246-0.29492,0.0498-0.4834,0.08301c-0.18945,0.0332-0.40625,0.06445-0.65039,0.0918
			c-0.24414,0.02832-0.50879,0.05859-0.79199,0.0918s-0.59375,0.06641-0.93262,0.09961
			c-0.33984,0.03418-0.68945,0.06152-1.05078,0.08398c-0.36035,0.02246-0.75488,0.03906-1.18262,0.0498S39.9668,160,39.5332,160
			s-0.86426-0.00586-1.29199-0.0166s-0.82227-0.02734-1.18262-0.0498c-0.36133-0.02246-0.71191-0.0498-1.05078-0.08398
			c-0.33887-0.0332-0.64941-0.06641-0.93262-0.09961s-0.54785-0.06348-0.79199-0.0918
			c-0.24414-0.02734-0.46094-0.05859-0.65039-0.0918c-0.18848-0.0332-0.34961-0.06055-0.4834-0.08301
			c-0.13281-0.02246-0.23828-0.03906-0.31641-0.0498l-0.13281-0.0332c-0.18945-0.04492-0.3418-0.13965-0.45898-0.28418
			c-0.11621-0.14355-0.1748-0.31055-0.1748-0.5V146.9668c0-0.18848,0.05859-0.35547,0.1748-0.5
			c0.11719-0.14453,0.26953-0.23926,0.45898-0.2832c0.01074,0,0.07422-0.01074,0.19141-0.0332
			c0.11621-0.02246,0.29688-0.05273,0.54199-0.0918c0.24414-0.03906,0.5-0.0752,0.7666-0.1084v0.7168
			c0,0.38867,0.13867,0.70801,0.41602,0.95801c0.27832,0.25,0.61133,0.375,1,0.375c-0.2334-0.21094-0.34961-0.47754-0.34961-0.7998
			v-2.13379c0-0.28809,0.10547-0.53809,0.31641-0.75c0.21094-0.21094,0.46094-0.31641,0.75-0.31641s0.53906,0.10547,0.75,0.31641
			c0.21094,0.21191,0.31641,0.46191,0.31641,0.75v0.58398c0.66699-0.03418,1.37793-0.05078,2.13379-0.05078
			c0.47754,0,0.83301,0.00586,1.06641,0.0166v1.05078c0,0.38867,0.13867,0.70801,0.41699,0.95801
			c0.27734,0.25,0.61133,0.375,1,0.375c-0.2334-0.21094-0.34961-0.47754-0.34961-0.7998v-2.13379
			c0-0.28809,0.10547-0.53809,0.31641-0.75C42.19434,144.10547,42.44434,144,42.7334,144s0.53906,0.10547,0.75,0.31641
			c0.21094,0.21191,0.31641,0.46191,0.31641,0.75v0.75C44.86621,145.92773,45.72168,146.0498,46.36621,146.18359z M39.5332,158.4834
			c2.04395,0,4-0.15527,5.86621-0.4668v-7.61621H33.66699v7.61621C35.5332,158.32812,37.48828,158.4834,39.5332,158.4834z
			 M37.39941,156.7998H35.2666v-2.13281h2.13281V156.7998z M40.59961,151.4668v2.13281H38.4668v-2.13281H40.59961z
			 M40.59961,156.7998H38.4668v-2.13281h2.13281V156.7998z M43.7998,151.4668v2.13281h-2.13281v-2.13281H43.7998z M43.7998,156.7998
			h-2.13281v-2.13281h2.13281V156.7998z"/>
	</g>
</g>
</svg>
